<svg id="svg" version="1.1" xmlns="http://www.w3.org/2000/svg" xmlns:xlink="http://www.w3.org/1999/xlink" width="400" height="458.5551330798479" viewBox="0, 0, 400,458.5551330798479"><g id="svgg"><path id="path0" d="M145.963 69.901 L 132.863 105.830 141.272 105.897 C 145.897 105.934,149.718 105.877,149.762 105.770 C 149.807 105.664,151.063 102.041,152.552 97.719 L 155.260 89.861 166.502 89.861 L 177.744 89.861 180.494 97.811 C 182.006 102.184,183.289 105.807,183.345 105.863 C 183.400 105.918,187.219 105.934,191.831 105.897 L 200.217 105.830 187.117 69.901 L 174.018 33.971 166.540 33.971 L 159.062 33.971 145.963 69.901 M242.743 51.521 C 243.086 52.811,246.873 66.869,251.159 82.763 L 258.952 111.660 267.866 111.727 L 276.780 111.794 277.008 110.966 C 277.132 110.512,279.551 101.470,282.383 90.875 C 285.215 80.279,287.608 71.521,287.702 71.413 C 287.795 71.304,289.339 76.551,291.132 83.073 C 292.925 89.594,295.431 98.695,296.700 103.295 L 299.007 111.660 307.914 111.727 C 316.234 111.789,316.830 111.764,316.957 111.347 C 317.425 109.816,333.587 49.649,333.587 49.437 C 333.587 49.264,330.872 49.176,325.485 49.176 L 317.383 49.176 317.136 50.127 C 316.999 50.650,314.758 60.203,312.155 71.356 C 309.552 82.510,307.349 91.715,307.260 91.812 C 307.171 91.909,304.645 82.356,301.648 70.584 L 296.198 49.178 288.150 49.177 C 283.723 49.177,280.101 49.221,280.101 49.276 C 280.101 49.524,268.914 91.185,268.727 91.635 C 268.477 92.235,268.940 94.183,263.232 68.506 L 258.935 49.180 250.527 49.178 L 242.119 49.176 242.743 51.521 M170.718 65.463 C 172.936 72.189,174.798 77.836,174.855 78.010 C 174.937 78.259,173.136 78.327,166.413 78.327 C 159.681 78.327,157.893 78.260,157.988 78.010 C 158.054 77.836,159.974 72.189,162.255 65.463 C 164.536 58.736,166.466 53.232,166.544 53.232 C 166.622 53.232,168.500 58.736,170.718 65.463 M43.346 143.713 L 43.346 179.721 51.711 179.721 L 60.076 179.721 60.076 168.080 L 60.076 156.439 69.518 156.333 C 79.903 156.218,80.175 156.183,83.808 154.508 C 102.494 145.890,101.771 117.631,82.656 109.497 C 78.800 107.856,79.362 107.899,60.520 107.798 L 43.346 107.705 43.346 143.713 M75.823 122.849 C 81.483 125.465,82.769 135.507,78.031 140.102 C 76.151 141.926,76.003 141.952,67.562 141.952 L 60.076 141.952 60.076 132.046 L 60.076 122.139 67.364 122.223 C 74.173 122.302,74.728 122.343,75.823 122.849 M183.016 204.074 C 165.547 205.820,154.066 216.093,150.825 232.877 C 149.100 241.814,149.111 318.804,150.839 327.340 C 154.008 342.998,165.123 353.242,181.250 355.368 C 206.218 358.659,223.477 346.070,225.850 322.835 C 227.259 309.047,227.335 252.190,225.965 237.516 C 223.818 214.523,207.285 201.650,183.016 204.074 M239.544 279.721 L 239.544 352.852 253.611 352.852 L 267.679 352.852 267.743 319.695 L 267.807 286.539 275.899 317.351 C 280.349 334.297,284.273 349.217,284.618 350.507 L 285.245 352.852 299.784 352.852 L 314.322 352.852 314.322 279.721 L 314.322 206.591 300.380 206.591 L 286.439 206.591 286.421 239.607 C 286.411 259.920,286.314 272.429,286.171 272.117 C 286.043 271.838,281.883 257.180,276.926 239.544 C 271.970 221.907,267.854 207.278,267.781 207.034 C 267.655 206.619,266.757 206.591,253.595 206.591 L 239.544 206.591 239.544 279.721 M190.655 228.915 C 191.541 229.389,192.435 230.895,192.706 232.370 C 193.092 234.466,193.287 321.686,192.913 324.924 C 192.373 329.597,190.460 331.699,187.234 331.167 C 182.700 330.420,182.692 330.318,182.832 275.412 C 182.940 232.863,182.916 233.606,184.228 231.036 C 185.397 228.745,188.453 227.737,190.655 228.915 " stroke="none" fill="#fbfbfb" fill-rule="evenodd"></path><path id="path1" d="M280.708 17.882 C 237.329 24.214,219.551 77.283,250.430 108.263 C 283.989 141.931,341.445 118.233,341.445 70.722 C 341.445 38.270,312.651 13.219,280.708 17.882 M159.035 21.684 C 115.656 28.016,97.878 81.085,128.757 112.065 C 162.316 145.734,219.772 122.035,219.772 74.525 C 219.772 42.072,190.978 17.022,159.035 21.684 M187.100 69.455 C 194.199 88.904,200.076 105.073,200.158 105.387 L 200.308 105.957 191.726 105.955 L 183.143 105.954 181.954 102.470 C 181.300 100.554,180.061 96.960,179.200 94.484 L 177.635 89.982 166.465 90.048 L 155.295 90.114 152.616 98.032 L 149.937 105.951 141.381 105.954 C 136.676 105.956,132.826 105.860,132.826 105.743 C 132.826 105.625,138.646 89.570,145.759 70.065 C 152.871 50.559,158.743 34.456,158.807 34.280 C 158.897 34.029,160.583 33.974,166.557 34.027 L 174.191 34.094 187.100 69.455 M259.187 49.747 C 259.261 50.060,261.377 59.556,263.889 70.849 C 266.401 82.142,268.486 91.481,268.523 91.603 C 268.559 91.725,271.151 82.230,274.282 70.503 L 279.975 49.182 288.150 49.179 C 292.646 49.178,296.328 49.205,296.333 49.240 C 296.458 50.228,307.185 91.518,307.275 91.359 C 307.347 91.232,309.611 81.689,312.305 70.152 L 317.204 49.176 325.549 49.176 C 332.116 49.176,333.871 49.244,333.784 49.493 C 333.723 49.667,329.920 63.755,325.333 80.798 L 316.993 111.787 307.931 111.787 L 298.869 111.787 298.725 111.217 C 295.749 99.405,287.729 71.495,287.526 72.243 C 287.393 72.731,284.957 81.828,282.111 92.459 L 276.937 111.787 267.883 111.787 L 258.828 111.787 258.542 110.710 C 258.384 110.117,254.615 96.125,250.167 79.616 C 245.718 63.107,242.079 49.504,242.079 49.388 C 242.079 49.271,245.898 49.176,250.566 49.176 L 259.052 49.176 259.187 49.747 M162.293 65.733 C 160.027 72.450,158.174 78.032,158.174 78.137 C 158.175 78.241,161.930 78.327,166.519 78.327 L 174.864 78.327 170.797 66.096 C 168.560 59.369,166.658 53.788,166.571 53.692 C 166.484 53.597,164.559 59.015,162.293 65.733 M57.134 89.365 C 13.755 95.696,-4.024 148.766,26.855 179.746 C 60.415 213.414,117.871 189.716,117.871 142.205 C 117.871 109.753,89.077 84.702,57.134 89.365 M78.781 108.133 C 96.962 111.869,103.850 135.750,90.754 149.645 C 85.419 155.306,81.877 156.445,69.138 156.593 L 60.076 156.698 60.076 168.210 L 60.076 179.721 51.711 179.721 L 43.346 179.721 43.346 143.726 L 43.346 107.731 60.087 107.731 C 74.371 107.731,77.114 107.790,78.781 108.133 M60.076 132.193 L 60.076 141.952 67.128 141.952 C 75.528 141.952,76.134 141.839,78.048 139.925 C 81.640 136.333,81.515 127.815,77.818 124.358 C 75.910 122.573,75.127 122.433,67.001 122.433 L 60.076 122.433 60.076 132.193 M222.814 127.915 C 149.578 132.943,90.340 188.029,81.132 259.668 C 80.076 267.888,79.975 269.688,79.985 280.101 C 80.074 373.287,162.404 443.980,254.880 430.277 C 328.765 419.329,384.028 354.959,384.028 279.848 C 384.028 201.345,325.758 137.099,246.641 128.371 C 243.146 127.986,226.442 127.665,222.814 127.915 M197.534 204.543 C 208.858 206.812,216.820 212.448,221.682 221.635 C 226.560 230.851,226.991 235.569,226.991 279.721 C 226.991 326.651,226.497 330.908,219.899 340.811 C 213.185 350.888,203.970 355.473,189.734 355.819 C 168.976 356.324,155.383 346.716,150.932 328.390 C 148.813 319.667,148.632 243.226,150.705 232.812 C 153.695 217.799,163.655 207.482,177.864 204.680 C 183.177 203.632,192.660 203.566,197.534 204.543 M276.910 238.959 L 286.058 271.455 286.123 238.896 L 286.187 206.337 300.381 206.337 L 314.575 206.337 314.575 279.596 L 314.575 352.856 299.817 352.790 L 285.059 352.725 276.433 319.903 L 267.807 287.080 267.743 319.966 L 267.679 352.852 253.611 352.852 L 239.544 352.852 239.544 279.592 L 239.544 206.333 253.652 206.398 L 267.761 206.464 276.910 238.959 M186.565 228.929 C 185.063 229.528,184.148 230.905,183.556 233.460 C 183.077 235.528,182.803 316.562,183.255 322.406 C 183.813 329.615,184.833 331.300,188.455 331.000 C 190.754 330.809,192.056 329.334,192.694 326.195 C 193.479 322.328,193.198 235.537,192.387 231.759 C 191.836 229.188,189.168 227.891,186.565 228.929 " stroke="none" fill="#53bb4b" fill-rule="evenodd"></path><path id="path2" d="M246.596 206.527 C 250.544 206.566,256.932 206.566,260.791 206.527 C 264.650 206.488,261.420 206.456,253.612 206.456 C 245.805 206.456,242.648 206.488,246.596 206.527 M286.303 206.652 C 286.236 206.827,286.211 221.686,286.248 239.670 L 286.314 272.370 286.376 239.480 L 286.439 206.591 300.380 206.591 L 314.321 206.591 314.386 279.721 L 314.450 352.852 314.449 279.658 L 314.449 206.464 300.436 206.398 C 289.361 206.347,286.399 206.400,286.303 206.652 M182.886 278.580 C 182.886 297.750,182.916 305.593,182.953 296.008 C 182.990 286.423,182.990 270.738,182.953 261.153 C 182.916 251.568,182.886 259.411,182.886 278.580 M226.990 279.848 C 226.990 289.816,227.021 293.894,227.059 288.910 C 227.098 283.926,227.098 275.770,227.059 270.786 C 227.021 265.802,226.990 269.880,226.990 279.848 M149.422 279.848 C 149.422 288.561,149.454 292.126,149.493 287.769 C 149.532 283.413,149.532 276.283,149.493 271.926 C 149.454 267.570,149.422 271.134,149.422 279.848 " stroke="none" fill="#a4dca2" fill-rule="evenodd"></path><path id="path3" d="M80.672 132.193 C 80.675 132.750,80.727 132.949,80.788 132.633 C 80.848 132.318,80.846 131.862,80.783 131.619 C 80.719 131.377,80.669 131.635,80.672 132.193 M97.656 132.193 C 97.659 132.750,97.711 132.949,97.771 132.633 C 97.832 132.318,97.829 131.862,97.766 131.619 C 97.703 131.377,97.653 131.635,97.656 132.193 M192.975 239.924 C 192.977 240.621,193.026 240.876,193.084 240.491 C 193.143 240.105,193.141 239.535,193.081 239.223 C 193.021 238.912,192.973 239.227,192.975 239.924 M149.620 246.515 C 149.623 247.072,149.675 247.271,149.736 246.955 C 149.796 246.640,149.794 246.184,149.731 245.941 C 149.667 245.699,149.618 245.957,149.620 246.515 M226.675 247.909 C 226.675 248.397,226.727 248.596,226.791 248.352 C 226.854 248.108,226.854 247.709,226.791 247.465 C 226.727 247.221,226.675 247.421,226.675 247.909 M149.406 260.203 C 149.406 262.433,149.445 263.312,149.492 262.155 C 149.539 260.998,149.539 259.173,149.491 258.099 C 149.444 257.026,149.405 257.972,149.406 260.203 M226.964 259.189 C 226.965 260.722,227.007 261.317,227.057 260.510 C 227.108 259.704,227.107 258.449,227.056 257.722 C 227.005 256.995,226.964 257.655,226.964 259.189 M149.406 299.493 C 149.406 301.724,149.445 302.602,149.492 301.446 C 149.539 300.289,149.539 298.464,149.491 297.390 C 149.444 296.316,149.405 297.262,149.406 299.493 M226.963 300.380 C 226.963 301.844,227.005 302.443,227.056 301.711 C 227.108 300.979,227.108 299.781,227.056 299.049 C 227.005 298.317,226.963 298.916,226.963 300.380 M226.675 311.534 C 226.675 312.022,226.727 312.221,226.791 311.977 C 226.854 311.733,226.854 311.334,226.791 311.090 C 226.727 310.846,226.675 311.046,226.675 311.534 M149.620 313.435 C 149.623 313.992,149.675 314.191,149.736 313.875 C 149.796 313.560,149.794 313.104,149.731 312.861 C 149.667 312.619,149.618 312.877,149.620 313.435 M192.981 320.786 C 192.982 321.622,193.030 321.934,193.086 321.478 C 193.143 321.023,193.141 320.338,193.084 319.957 C 193.026 319.577,192.980 319.949,192.981 320.786 " stroke="none" fill="#90d08c" fill-rule="evenodd"></path><path id="path4" d="M159.189 89.916 C 169.191 90.093,177.888 90.097,177.781 89.924 C 177.716 89.819,172.623 89.759,166.462 89.790 C 160.301 89.821,157.028 89.878,159.189 89.916 M63.450 122.370 C 65.375 122.413,68.455 122.413,70.294 122.369 C 72.133 122.326,70.558 122.291,66.793 122.291 C 63.029 122.291,61.525 122.326,63.450 122.370 M63.688 156.590 C 65.745 156.633,69.110 156.633,71.166 156.590 C 73.222 156.547,71.540 156.513,67.427 156.513 C 63.314 156.513,61.632 156.547,63.688 156.590 M187.896 228.565 C 188.140 228.629,188.539 228.629,188.783 228.565 C 189.027 228.501,188.828 228.449,188.340 228.449 C 187.852 228.449,187.652 228.501,187.896 228.565 M182.852 241.825 C 182.852 243.010,182.895 243.495,182.949 242.902 C 183.002 242.310,183.002 241.340,182.949 240.748 C 182.895 240.155,182.852 240.640,182.852 241.825 M149.869 241.825 C 149.869 242.313,149.921 242.513,149.985 242.269 C 150.048 242.025,150.048 241.625,149.985 241.381 C 149.921 241.138,149.869 241.337,149.869 241.825 M149.635 249.556 C 149.636 250.393,149.684 250.705,149.740 250.249 C 149.797 249.793,149.795 249.109,149.738 248.728 C 149.680 248.347,149.634 248.720,149.635 249.556 M226.685 250.444 C 226.685 251.071,226.734 251.328,226.795 251.014 C 226.855 250.700,226.855 250.187,226.795 249.873 C 226.734 249.560,226.685 249.816,226.685 250.444 M226.685 308.999 C 226.685 309.626,226.734 309.883,226.795 309.569 C 226.855 309.255,226.855 308.742,226.795 308.428 C 226.734 308.115,226.685 308.371,226.685 308.999 M149.635 310.393 C 149.636 311.229,149.684 311.541,149.740 311.085 C 149.797 310.630,149.795 309.945,149.738 309.565 C 149.680 309.184,149.634 309.556,149.635 310.393 M182.854 315.589 C 182.854 316.914,182.897 317.456,182.949 316.793 C 183.002 316.131,183.002 315.048,182.949 314.385 C 182.897 313.723,182.854 314.265,182.854 315.589 M149.869 318.124 C 149.869 318.612,149.921 318.812,149.985 318.568 C 150.048 318.324,150.048 317.925,149.985 317.681 C 149.921 317.437,149.869 317.636,149.869 318.124 M187.643 331.227 C 187.887 331.290,188.286 331.290,188.530 331.227 C 188.774 331.163,188.574 331.111,188.086 331.111 C 187.598 331.111,187.399 331.163,187.643 331.227 " stroke="none" fill="#acdcac" fill-rule="evenodd"></path></g></svg>